

Release info:

General
Format : Matroska
Format version : Version 2
File size : 694 MiB
Duration : 1h 19mn
Overall bit rate : 1 227 Kbps


Video
ID : 1
Format : MPEG-4 Visual
Format profile : Advanced Simple@L5
Format settings, BVOP : Yes
Format settings, QPel : No
Format settings, GMC : No warppoints
Format settings, Matrix : Default (H.263)
Codec ID : V_MS/VFW/FOURCC / XVID
Codec ID/Hint : XviD
Duration : 1h 19mn
Bit rate : 978 Kbps
Width : 640 pixels
Height : 352 pixels
Display aspect ratio : 16:9
Frame rate mode : Constant
Frame rate : 25.000 fps
Color space : YUV
Chroma subsampling : 4:2:0
Bit depth : 8 bits
Scan type : Progressive
Compression mode : Lossy
Bits/(Pixel*Frame) : 0.174
Stream size : 554 MiB (80%)
Default : Yes
Forced : No

Audio
ID : 2
Format : AC-3
Format/Info : Audio Coding 3
Mode extension : CM (complete main)
Format settings, Endianness : Big
Muxing mode : Header stripping
Codec ID : A_AC3
Duration : 1h 19mn
Bit rate mode : Constant
Bit rate : 224 Kbps
Channel(s) : 2 channels
Channel positions : Front: L R
Sampling rate : 48.0 KHz
Bit depth : 16 bits
Compression mode : Lossy
Stream size : 127 MiB (18%)
Default : Yes
Forced : No



Source:
credit to original movie ripper Taste (Thanks)

IMDB Info:

In October 2009, the filmmakers went into an abandoned psychiatric hospital to explore the 'haunted' institution...
Director: Sean Stone
Writers: Sean Stone, Alexander Wraith
Stars: Pete Antico, Antonella Lentini and Zana Markelson 

Genres: Horror
 
http://www.imdb.com/title/tt1588886/

Screen Shot:
 
http://www.shotpix.com/images/48411338231895690433.png[/ 
http://www.shotpix.com/images/42750830081624970483.png[/ 
http://www.shotpix.com/images/84249871682629149896.png[/ 
http://www.shotpix.com/images/66620146565428436524.png[/ 
http://www.shotpix.com/images/08643692412279688378.png[/ 
http://www.shotpix.com/images/11912111695913113213.png[/ 
http://www.shotpix.com/images/11270414381121316700.png[/ 
http://www.shotpix.com/images/35435182480725658463.png[/ 
http://www.shotpix.com/images/75878837842542321415.png[/ 
http://www.shotpix.com/images/73328619696119032787.png[/